<svg xmlns="http://www.w3.org/2000/svg" viewBox="0 0 37.44 37.44"><defs><style>.cls-1{fill:#2fb5d2;}</style></defs><g id="Layer_2" data-name="Layer 2"><g id="Layer_2-2" data-name="Layer 2"><path class="cls-1" d="M14.77,33.05a.74.74,0,0,0-.52.22.74.74,0,0,0-.21.51.76.76,0,0,0,.21.52.75.75,0,0,0,1,0,.76.76,0,0,0,.21-.52.74.74,0,0,0-.21-.51.74.74,0,0,0-.52-.22Z"/><path class="cls-1" d="M36.66,10a2.67,2.67,0,0,0-3.77,0l-3.35,3.35V2.49A2.49,2.49,0,0,0,27.06,0H2.49A2.5,2.5,0,0,0,0,2.49V35a2.5,2.5,0,0,0,2.49,2.49H27.06A2.49,2.49,0,0,0,29.54,35V20.85l7.12-7.11a2.67,2.67,0,0,0,0-3.77ZM28.08,2.49V14.78l-1.46,1.46V3.66a.74.74,0,0,0-.73-.74H21V1.46h6.06a1,1,0,0,1,1,1Zm-4,20,1-2.22,1.24,1.23Zm3,13.44H2.49a1,1,0,0,1-1-1V2.49a1,1,0,0,1,1-1h6V2.92H3.66a.74.74,0,0,0-.74.74V33.78a.73.73,0,0,0,.74.73h8.19a.73.73,0,1,0,0-1.46H4.39V4.39H8.54v.05a2.3,2.3,0,0,0,2.29,2.29h7.88A2.3,2.3,0,0,0,21,4.44V4.39h4.15V17.7l-.83.84a.71.71,0,0,0-.15.22L22,23.69a.72.72,0,0,0,.66,1,.73.73,0,0,0,.3-.06l2.21-1v9.38H17.7a.73.73,0,1,0,0,1.46h8.19a.73.73,0,0,0,.73-.73V23l1.25-.55a1.1,1.1,0,0,0,.21-.14V35a1,1,0,0,1-1,1ZM32.9,15.43l-5.33,5.32-1.7-1.7,6.6-6.59,1.7,1.7Zm2.73-2.73-.43.43-1.7-1.7.42-.43a1.21,1.21,0,1,1,1.71,1.7Z"/><path class="cls-1" d="M11.85,8.77H7.17a.74.74,0,0,0-.74.74v4.68a.74.74,0,0,0,.74.73h4.68a.73.73,0,0,0,.73-.73V9.51a.74.74,0,0,0-.73-.74Zm-.74,4.68H7.9V10.24h3.21Z"/><path class="cls-1" d="M11.85,16.82H7.17a.74.74,0,0,0-.74.73v4.68a.74.74,0,0,0,.74.73h4.68a.73.73,0,0,0,.73-.73V17.55a.73.73,0,0,0-.73-.73Zm-.74,4.68H7.9V18.28h3.21Z"/><path class="cls-1" d="M11.85,24.86H7.17a.74.74,0,0,0-.74.73v4.68a.73.73,0,0,0,.74.73h4.68a.73.73,0,0,0,.73-.73V25.59a.73.73,0,0,0-.73-.73Zm-.74,4.68H7.9V26.32h3.21Z"/><path class="cls-1" d="M17.08,14a.71.71,0,0,0,1,0l3.31-3.3a.73.73,0,0,0-1-1L17.6,12.46l-1.11-1.11a.74.74,0,0,0-1,1Z"/><path class="cls-1" d="M17.08,22.06a.76.76,0,0,0,.52.21.74.74,0,0,0,.51-.21l3.31-3.3a.74.74,0,0,0-1-1L17.6,20.51,16.49,19.4a.73.73,0,0,0-1,1Z"/><path class="cls-1" d="M18.43,29l1.14,1.13a.71.71,0,0,0,1,0,.72.72,0,0,0,0-1l-1.13-1.14L20.6,26.8a.73.73,0,0,0-1-1L18.43,26.9,17.3,25.77a.73.73,0,0,0-1,1l1.13,1.13-1.13,1.14a.72.72,0,0,0,0,1,.71.71,0,0,0,1,0Z"/></g></g></svg>