<svg xmlns="http://www.w3.org/2000/svg" viewBox="0 0 103.33 100"><defs><style>.cls-1{fill:#fff;}</style></defs><g id="Layer_2" data-name="Layer 2"><g id="Layer_2-2" data-name="Layer 2"><path class="cls-1" d="M101.67,28.33a1.66,1.66,0,0,0,1.66-1.66v-5A1.66,1.66,0,0,0,101.67,20H73.33V18.33h10A1.66,1.66,0,0,0,85,16.67v-15A1.67,1.67,0,0,0,83.33,0H20a1.67,1.67,0,0,0-1.67,1.67v15A1.66,1.66,0,0,0,20,18.33H30V20H1.67A1.67,1.67,0,0,0,0,21.67v5a1.66,1.66,0,0,0,1.67,1.66H3.33V91.67H1.67A1.66,1.66,0,0,0,0,93.33v5A1.67,1.67,0,0,0,1.67,100h100a1.66,1.66,0,0,0,1.66-1.67v-5a1.66,1.66,0,0,0-1.66-1.66H100V28.33ZM21.67,15V3.33h60V15ZM70,18.33V20H53.33V18.33Zm-20,0V20H33.33V18.33Zm50,78.34H3.33V95H100ZM90,33.33H60A1.67,1.67,0,0,0,58.33,35V91.67H6.67V28.33h90V91.67h-5V35A1.67,1.67,0,0,0,90,33.33ZM61.67,41.67v-5H88.33v5ZM88.33,45V91.67H61.67V45Zm-85-20V23.33H100V25Z"/><path class="cls-1" d="M83.33,61.67a1.66,1.66,0,0,0-1.66,1.66v10a1.67,1.67,0,1,0,3.33,0v-10a1.66,1.66,0,0,0-1.67-1.66Z"/><path class="cls-1" d="M13.33,76.67H51.67A1.66,1.66,0,0,0,53.33,75V35a1.66,1.66,0,0,0-1.66-1.67H13.33A1.66,1.66,0,0,0,11.67,35V75a1.66,1.66,0,0,0,1.66,1.67ZM50,73.33H15V45H50ZM15,36.67H50v5H15Z"/></g></g></svg>