<svg xmlns="http://www.w3.org/2000/svg" viewBox="0 0 139.53 100"><defs><style>.cls-1{fill:#fff;}</style></defs><g id="Layer_2" data-name="Layer 2"><g id="Layer_2-2" data-name="Layer 2"><path class="cls-1" d="M139.17,59.21,118.23,26.65a2.3,2.3,0,0,0-2-1.07H93V11.63A2.32,2.32,0,0,0,90.7,9.3H2.33A2.33,2.33,0,0,0,0,11.63V86.05a2.32,2.32,0,0,0,2.33,2.32H18.8a13.95,13.95,0,0,0,27.51,0H97.87a13.95,13.95,0,0,0,27.51,0h11.83a2.32,2.32,0,0,0,2.32-2.32V60.47A2.31,2.31,0,0,0,139.17,59.21ZM120.93,39.44l10.52,16.37H102.33V39.53h18.6ZM32.56,95.35a9.31,9.31,0,1,1,9.3-9.3A9.31,9.31,0,0,1,32.56,95.35Zm0-23.26A14,14,0,0,0,18.8,83.72H4.65V79.07H14a2.33,2.33,0,1,0,0-4.65H4.65V14H88.37V18.6H11.63A2.33,2.33,0,0,0,9.3,20.93h0a2.33,2.33,0,0,0,2.33,2.33H88.37V74.42H51.16a2.33,2.33,0,0,0,0,4.65H88.37v4.65H46.31A14,14,0,0,0,32.56,72.09Zm79.07,23.26a9.31,9.31,0,1,1,9.3-9.3A9.31,9.31,0,0,1,111.63,95.35Zm13.75-11.63a13.95,13.95,0,0,0-27.51,0H93V30.23h22l3,4.65H100a2.33,2.33,0,0,0-2.33,2.33V58.14A2.33,2.33,0,0,0,100,60.47h34.44l.44.68V74.42h-4.65a2.33,2.33,0,0,0,0,4.65h4.65v4.65Z"/><path class="cls-1" d="M32.56,83.72a2.33,2.33,0,0,0-2.33,2.33h0a2.33,2.33,0,0,0,4.65,0h0A2.32,2.32,0,0,0,32.56,83.72Z"/><path class="cls-1" d="M111.63,83.72a2.33,2.33,0,0,0-2.33,2.33h0a2.33,2.33,0,0,0,4.65,0h0A2.32,2.32,0,0,0,111.63,83.72Z"/><rect class="cls-1" x="9.3" width="32.56" height="4.65" rx="2.33"/><path class="cls-1" d="M2.33,4.65h0A2.32,2.32,0,0,0,4.65,2.33h0A2.32,2.32,0,0,0,2.33,0h0A2.33,2.33,0,0,0,0,2.33H0A2.32,2.32,0,0,0,2.33,4.65Z"/></g></g></svg>