<svg xmlns="http://www.w3.org/2000/svg" viewBox="0 0 110.07 16.13"><defs><style>.cls-1{fill:#fff;}.cls-2{fill:#5f77bd;}.cls-3{fill:#84a8de;}.cls-4{fill:#4d63a9;}.cls-5{fill:#7494ca;}.cls-6{fill:#1e2025;}</style></defs><g id="Layer_2" data-name="Layer 2"><g id="Layer_2-2" data-name="Layer 2"><rect class="cls-1" width="14.23" height="14.62"/><polygon class="cls-2" points="13.06 5.36 7.14 11.33 7.16 11.33 7.16 11.33 3.96 8.03 0 12.09 0 14.61 14.23 14.61 14.23 6.62 13.06 5.36"/><polygon class="cls-3" points="3.83 4.87 7.26 8.17 13.07 2.21 14.23 3.47 14.23 0 0 0 0 8.93 3.83 4.87"/><polygon class="cls-4" points="7.18 11.33 3.89 14.62 6.14 10.29 7.18 11.33"/><polygon class="cls-5" points="3.83 4.87 8.71 0.04 4.96 5.95 3.83 4.87"/><polygon class="cls-5" points="14.23 0.95 13.06 2.21 13.65 2.84 14.23 1.84 14.23 0.95"/><polygon class="cls-6" points="22.23 8.08 19.05 3.23 17.98 3.23 17.98 12.19 19.01 12.19 19.01 4.99 22.03 9.59 22.46 9.59 25.45 5 25.45 12.19 26.48 12.19 26.48 3.23 25.38 3.23 22.23 8.08"/><path class="cls-6" d="M33.23,6.67a3,3,0,0,0-2.29-1A3.21,3.21,0,0,0,27.67,9a3.22,3.22,0,0,0,3.27,3.31,3,3,0,0,0,2.29-1v.91h1V5.75h-1Zm-2.29,4.65A2.24,2.24,0,0,1,28.65,9a2.32,2.32,0,1,1,4.63,0,2.4,2.4,0,0,1-.59,1.61A2.25,2.25,0,0,1,30.94,11.32Z"/><path class="cls-6" d="M38.3,5.69h-.06a2.44,2.44,0,0,0-1.84.74V5.75h-.93v6.43h1V8.47a1.82,1.82,0,0,1,1.81-1.84,1.71,1.71,0,0,1,.93.26l.17.1.45-.82-.15-.09A2.51,2.51,0,0,0,38.3,5.69Z"/><polygon class="cls-6" points="44.82 6.1 44.88 6.02 44.88 5.75 43.82 5.75 41.22 8.16 41.22 3.23 40.26 3.23 40.26 12.19 41.22 12.19 41.22 9.46 44.21 12.19 45.05 12.19 45.23 12.15 45.23 11.88 41.9 8.8 44.82 6.1"/><path class="cls-6" d="M56.19,11.12a2,2,0,0,1-.85.23c-.69,0-.93-.31-.93-1.22V6.63h2.06V5.75H54.41V3.91l-1,.1V5.75H52.16v.88h1.29v3.5c0,1.44.62,2.14,1.89,2.14a2.8,2.8,0,0,0,1.22-.33l.16-.07L56.37,11Z"/><rect class="cls-6" x="57.48" y="5.73" width="0.98" height="6.46"/><path class="cls-6" d="M58.49,4.29A.52.52,0,0,0,58,3.77a.52.52,0,1,0,0,1A.51.51,0,0,0,58.49,4.29Z"/><path class="cls-6" d="M62.73,5.64a2.7,2.7,0,0,0-2,.81v-.7h-1v6.43h1V8.63a1.94,1.94,0,0,1,2-2,1.75,1.75,0,0,1,1.94,1.9v3.67h1V8.5A2.71,2.71,0,0,0,62.73,5.64Z"/><path class="cls-6" d="M71.26,11.34a3.07,3.07,0,0,0,1.38-2.55A3.08,3.08,0,0,0,72,6.72l.61-.7-.68-.59-.6.7a3.35,3.35,0,0,0-1.68-.49,2.93,2.93,0,0,0-3,3.15,3,3,0,0,0,3,3.11c1,0,2.1.43,2.1,1.63,0,1.52-1.61,1.64-2.1,1.64-1,0-2.08-.43-2.08-1.64v-.19h-1v.19c0,1.56,1.23,2.6,3.06,2.6s3.07-1,3.07-2.6A2.34,2.34,0,0,0,71.26,11.34ZM69.6,6.62a2,2,0,0,1,2.08,2.17,2.14,2.14,0,0,1-2.08,2.14,2,2,0,0,1-2.06-2.14A2,2,0,0,1,69.6,6.62Z"/><path class="cls-6" d="M51,9v.1A2.36,2.36,0,0,1,49.81,11a2.26,2.26,0,0,1-1.18.33,2.39,2.39,0,0,1-1.79-.81l4.86-2.8-.07-.16-.14-.27A3.29,3.29,0,0,0,47,6.1a3.25,3.25,0,0,0-1.54,2,3.3,3.3,0,0,0,3.2,4.16,3.29,3.29,0,0,0,3.29-3.53l0-.3Zm-.55-1.55L46.38,9.77a2.38,2.38,0,0,1,4.06-2.35Z"/><path class="cls-6" d="M92,9v.1A2.36,2.36,0,0,1,90.81,11a2.27,2.27,0,0,1-1.19.33,2.38,2.38,0,0,1-1.78-.81l4.85-2.8-.07-.16c0-.09-.08-.18-.13-.27a3.34,3.34,0,0,0-2.87-1.66A3.3,3.3,0,0,0,88,6.1a3.31,3.31,0,0,0-1.21,4.52,3.31,3.31,0,0,0,6.16-1.88l0-.3Zm-.55-1.55L87.38,9.77a2.38,2.38,0,0,1,4.06-2.35Z"/><polygon class="cls-6" points="81.09 7.99 77.91 3.14 76.83 3.14 76.83 12.1 77.87 12.1 77.87 4.91 80.89 9.5 81.32 9.5 84.31 4.91 84.31 12.1 85.34 12.1 85.34 3.14 84.24 3.14 81.09 7.99"/><path class="cls-6" d="M99.24,6.56a2.92,2.92,0,0,0-2.32-1,3.1,3.1,0,0,0-3.23,3.31,3.2,3.2,0,0,0,5.55,2.29v.93h1v-9h-1Zm0,2.31a2.23,2.23,0,0,1-2.29,2.37,2.18,2.18,0,0,1-2.29-2.36,2.16,2.16,0,0,1,2.29-2.36A2.24,2.24,0,0,1,99.23,8.87Z"/><path class="cls-6" d="M101.39,3.88a.67.67,0,0,0,1.34,0A.67.67,0,0,0,101.39,3.88Z"/><rect class="cls-6" x="101.56" y="5.64" width="0.98" height="6.46"/><path class="cls-6" d="M109.1,5.67v.91a3,3,0,0,0-2.29-1,3.21,3.21,0,0,0-3.26,3.29,3.22,3.22,0,0,0,3.26,3.32,3,3,0,0,0,2.29-1v.91h1V5.67Zm-2.29,5.57a2.25,2.25,0,0,1-2.29-2.36,2.32,2.32,0,1,1,4.63,0,2.47,2.47,0,0,1-.58,1.62A2.3,2.3,0,0,1,106.81,11.24Z"/></g></g></svg>