<svg xmlns="http://www.w3.org/2000/svg" viewBox="0 0 148.41 21.75"><defs><style>.cls-1{fill:#0080c4;}.cls-2{fill:#38b4e5;}.cls-3{fill:#006cb0;}.cls-4{fill:#07a0d1;}.cls-5{fill:#fff;}</style></defs><title>mmlogo.svg</title><g id="Capa_2" data-name="Capa 2"><g id="Layer_2" data-name="Layer 2"><polygon class="cls-1" points="17.6 7.23 9.62 15.28 9.65 15.27 9.66 15.28 5.34 10.83 0 16.3 0 19.69 19.19 19.69 19.19 8.93 17.6 7.23"/><polygon class="cls-2" points="5.17 6.57 9.79 11.02 17.62 2.98 19.19 4.67 19.19 0 0 0 0 12.03 5.17 6.57"/><polygon class="cls-3" points="9.68 15.28 5.24 19.71 8.28 13.88 9.68 15.28"/><polygon class="cls-4" points="5.17 6.57 11.75 0.06 6.68 8.03 5.17 6.57"/><polygon class="cls-4" points="19.19 1.28 17.61 2.98 18.4 3.83 19.19 2.49 19.19 1.28"/><polygon class="cls-5" points="29.98 10.89 25.68 4.35 24.24 4.35 24.24 16.43 25.63 16.43 25.63 6.73 29.71 12.93 30.28 12.93 34.32 6.74 34.32 16.43 35.7 16.43 35.7 4.35 34.22 4.35 29.98 10.89"/><path class="cls-5" d="M44.8,9a4,4,0,0,0-3.09-1.33,4.32,4.32,0,0,0-4.4,4.43,4.34,4.34,0,0,0,4.4,4.47A4,4,0,0,0,44.8,15.2v1.23h1.31V7.76H44.8Zm-3.09,6.28a3,3,0,0,1-3.09-3.17,3.12,3.12,0,1,1,6.24,0,3.28,3.28,0,0,1-.79,2.18A3.06,3.06,0,0,1,41.71,15.26Z"/><path class="cls-5" d="M51.65,7.67h-.08a3.3,3.3,0,0,0-2.48,1l0-.91H47.81v8.67h1.31v-5a2.45,2.45,0,0,1,2.44-2.47,2.36,2.36,0,0,1,1.26.34l.23.14.61-1.11-.21-.12A3.42,3.42,0,0,0,51.65,7.67Z"/><polygon class="cls-5" points="60.43 8.23 60.51 8.12 60.51 7.76 59.08 7.76 55.58 11 55.58 4.35 54.28 4.35 54.28 16.43 55.58 16.43 55.58 12.75 59.61 16.43 60.74 16.43 60.99 16.38 60.99 16.02 56.49 11.86 60.43 8.23"/><path class="cls-5" d="M75.77,15a2.79,2.79,0,0,1-1.15.31c-.94,0-1.25-.41-1.25-1.63V8.94h2.78V7.76H73.37V5.27l-1.3.14V7.76H70.33V8.94h1.73v4.72c0,1.94.83,2.88,2.55,2.88a3.78,3.78,0,0,0,1.65-.44l.22-.1L76,14.88Z"/><rect class="cls-5" x="77.51" y="7.72" width="1.31" height="8.7"/><circle class="cls-5" cx="78.16" cy="5.78" r="0.7"/><path class="cls-5" d="M84.58,7.61A3.64,3.64,0,0,0,81.93,8.7V7.76h-1.3v8.67h1.31v-4.8a2.61,2.61,0,0,1,2.65-2.73,2.36,2.36,0,0,1,2.61,2.57v4.95h1.32v-5A3.65,3.65,0,0,0,84.58,7.61Z"/><path class="cls-5" d="M96.07,15.29a4.13,4.13,0,0,0,1.87-3.44A4.12,4.12,0,0,0,97,9.07l.81-1-.91-.79-.81.95a4.43,4.43,0,0,0-2.27-.66,3.94,3.94,0,0,0-4.09,4.24A4,4,0,0,0,93.84,16c1.37,0,2.84.58,2.84,2.2,0,2.05-2.17,2.21-2.84,2.21-1.36,0-2.81-.58-2.81-2.21V18H89.72v.25c0,2.1,1.65,3.51,4.12,3.51S98,20.41,98,18.24A3.16,3.16,0,0,0,96.07,15.29ZM93.84,8.92a2.69,2.69,0,0,1,2.8,2.92,2.89,2.89,0,0,1-2.8,2.89,2.75,2.75,0,0,1-2.77-2.89A2.64,2.64,0,0,1,93.84,8.92Z"/><path class="cls-5" d="M68.76,12.09v.14a3.19,3.19,0,0,1-3.19,3.07,3.23,3.23,0,0,1-2.41-1.08l6.55-3.78-.1-.21c-.06-.12-.12-.25-.19-.37a4.45,4.45,0,0,0-6.09-1.63A4.46,4.46,0,1,0,70,11.79l0-.4ZM68,10l-5.47,3.16A3.21,3.21,0,0,1,68,10Z"/><path class="cls-5" d="M124,12.09v.14a3.2,3.2,0,0,1-3.19,3.07,3.23,3.23,0,0,1-2.41-1.08L125,10.43l-.09-.21c-.06-.12-.12-.25-.19-.37a4.46,4.46,0,1,0-1.63,6.09,4.43,4.43,0,0,0,2.21-4.16l0-.4ZM123.28,10l-5.47,3.16A3.21,3.21,0,0,1,123.28,10Z"/><polygon class="cls-5" points="109.34 10.77 105.04 4.24 103.6 4.24 103.6 16.31 104.99 16.31 104.99 6.62 109.07 12.81 109.64 12.81 113.68 6.62 113.68 16.31 115.06 16.31 115.06 4.24 113.58 4.24 109.34 10.77"/><path class="cls-5" d="M133.81,8.84a4,4,0,0,0-3.14-1.33A4.18,4.18,0,0,0,126.32,12a4.32,4.32,0,0,0,7.49,3.08v1.26h1.3V4.24h-1.3Zm0,3.12a3,3,0,0,1-3.09,3.19A2.93,2.93,0,0,1,127.62,12a2.91,2.91,0,0,1,3.09-3.19A3,3,0,0,1,133.8,12Z"/><path class="cls-5" d="M136.7,5.23a.9.9,0,0,0,1.81,0A.9.9,0,0,0,136.7,5.23Z"/><rect class="cls-5" x="136.93" y="7.61" width="1.32" height="8.71"/><path class="cls-5" d="M147.1,7.64V8.87A4,4,0,0,0,144,7.54a4.32,4.32,0,0,0-4.4,4.44,4.34,4.34,0,0,0,4.4,4.47,4,4,0,0,0,3.09-1.36v1.23h1.32V7.64ZM144,15.15A3,3,0,0,1,140.93,12a3.12,3.12,0,1,1,6.25,0,3.27,3.27,0,0,1-.79,2.18A3.07,3.07,0,0,1,144,15.15Z"/></g></g></svg>